<?xml version="1.0" encoding="iso-8859-1"?>
<!-- Generator: Adobe Illustrator 19.0.0, SVG Export Plug-In . SVG Version: 6.00 Build 0)  -->
<svg version="1.1" id="Capa_1" xmlns="http://www.w3.org/2000/svg" xmlns:xlink="http://www.w3.org/1999/xlink" x="0px" y="0px"
	 viewBox="0 0 512 512" style="enable-background:new 0 0 512 512;" xml:space="preserve">
<path style="fill:#FFE082;" d="M401.067,175.531c-1.681-4.541-6.132-7.45-10.965-7.168l-20.501,1.707
	c-3.97-10.031-6.311-20.632-6.933-31.403c0-5.891-4.776-10.667-10.667-10.667c-62.72,0-116.139-42.667-117.333-53.333
	C234.667,68.776,229.891,64,224,64c-5.891,0-10.667,4.776-10.667,10.667c0.523,7.694-2.147,15.264-7.381,20.928
	c-12.595,8.741-27.91,12.67-43.157,11.072c-5.536-0.508-11.011,1.479-14.933,5.419c-8.939,17.632-12.366,37.546-9.835,57.152
	c-9.301-0.896-23.787-3.477-27.136,6.272c-2.876,8.762-4.303,17.935-4.224,27.157c0,29.76,13.184,52.352,30.827,53.333
	c19.2,64.256,65.941,106.667,118.507,106.667S355.2,320.213,374.507,256c17.664-0.96,30.827-23.467,30.827-53.333
	C405.396,193.45,403.955,184.284,401.067,175.531z"/>
<path style="fill:#455A64;" d="M418.88,354.688l-54.869-19.093c-4.019-1.388-8.478-0.256-11.349,2.88
	c-6.699,7.317-13.888,16.277-21.461,25.749c-22.272,27.819-49.92,62.443-75.2,62.443c-25.28,0-52.928-34.624-75.179-62.443
	c-7.552-9.472-14.741-18.432-21.461-25.749c-2.871-3.136-7.33-4.268-11.349-2.88l-54.869,19.093
	C37.4,374.103,0.036,426.649,0,485.675v15.659C0,507.224,4.776,512,10.667,512h490.667c5.891,0,10.667-4.776,10.667-10.667v-15.659
	C511.967,426.655,474.613,374.11,418.88,354.688z"/>
<circle style="fill:#ECEFF1;" cx="208" cy="208" r="26.667"/>
<path style="fill:#607D8B;" d="M208,245.333c-20.619,0-37.333-16.715-37.333-37.333s16.715-37.333,37.333-37.333
	s37.333,16.715,37.333,37.333C245.31,228.609,228.609,245.31,208,245.333z M208,192c-8.837,0-16,7.163-16,16s7.163,16,16,16
	s16-7.163,16-16C223.988,199.168,216.832,192.012,208,192z"/>
<circle style="fill:#ECEFF1;" cx="304" cy="208" r="26.667"/>
<g>
	<path style="fill:#607D8B;" d="M304,245.333c-20.619,0-37.333-16.715-37.333-37.333s16.715-37.333,37.333-37.333
		c20.619,0,37.333,16.715,37.333,37.333C341.31,228.609,324.609,245.31,304,245.333z M304,192c-8.837,0-16,7.163-16,16
		s7.163,16,16,16s16-7.163,16-16C319.988,199.168,312.832,192.012,304,192z"/>
	<path style="fill:#607D8B;" d="M277.333,218.667c-1.854,0.005-3.678-0.472-5.291-1.387c-10.07-5.266-22.08-5.266-32.149,0
		c-5.146,2.868-11.642,1.021-14.51-4.125c-2.839-5.094-1.06-11.523,3.993-14.435c16.638-9.001,36.695-9.001,53.333,0
		c5.126,2.904,6.927,9.413,4.023,14.539C284.817,216.638,281.217,218.71,277.333,218.667z"/>
</g>
<path style="fill:#FFA000;" d="M192,170.667c-5.891,0-10.667-4.776-10.666-10.667c0-1.659,0.387-3.295,1.13-4.778l10.667-21.333
	c1.808-3.609,5.499-5.888,9.536-5.888h14.741l7.701-15.445c2.633-5.272,9.042-7.412,14.315-4.779
	c5.272,2.633,7.412,9.042,4.779,14.315l-10.667,21.333c-1.802,3.617-5.495,5.905-9.536,5.909h-14.741l-7.701,15.445
	C199.745,168.395,196.044,170.675,192,170.667z"/>
<g>
	<path style="fill:#607D8B;" d="M181.333,213.333c-2.103-0.002-4.159-0.625-5.909-1.792l-32-21.333
		c-4.901-3.27-6.224-9.893-2.955-14.795c3.27-4.901,9.893-6.224,14.795-2.955l32,21.333c4.901,3.268,6.225,9.891,2.957,14.792
		C188.24,211.555,184.904,213.338,181.333,213.333z"/>
	<path style="fill:#607D8B;" d="M330.667,213.333c-5.891-0.005-10.663-4.784-10.658-10.675c0.003-3.563,1.785-6.89,4.749-8.866
		l32-21.333c4.901-3.27,11.525-1.947,14.795,2.955s1.947,11.525-2.955,14.795l-32,21.333
		C334.841,212.712,332.777,213.336,330.667,213.333z"/>
</g>
<path style="fill:#455A64;" d="M256,0c-82.436,0.094-149.239,66.898-149.333,149.333c0.099,10.778,1.402,21.511,3.883,32
	c1.08,4.884,5.409,8.361,10.411,8.363c8.96,0.15,17.902,0.862,26.773,2.133c5.822,0.898,11.27-3.094,12.168-8.916
	c0.121-0.784,0.154-1.578,0.099-2.369c-1.964-17.548-1.027-35.3,2.773-52.544c20.921,2.057,41.816-4.153,58.219-17.301
	c2.77-2.756,5.16-5.869,7.104-9.259c31.837,27.799,71.851,44.489,114.005,47.552c2.099,12.598,5.731,24.892,10.816,36.608
	c1.693,3.878,5.518,6.389,9.749,6.4h0.875l28.373-2.347c4.658-0.384,8.524-3.757,9.536-8.32c2.481-10.489,3.783-21.222,3.883-32
	C405.239,66.898,338.436,0.094,256,0z"/>
<g>
</g>
<g>
</g>
<g>
</g>
<g>
</g>
<g>
</g>
<g>
</g>
<g>
</g>
<g>
</g>
<g>
</g>
<g>
</g>
<g>
</g>
<g>
</g>
<g>
</g>
<g>
</g>
<g>
</g>
</svg>
