<?xml version="1.0" encoding="iso-8859-1"?>
<!-- Generator: Adobe Illustrator 19.0.0, SVG Export Plug-In . SVG Version: 6.00 Build 0)  -->
<svg version="1.1" id="Capa_1" xmlns="http://www.w3.org/2000/svg" xmlns:xlink="http://www.w3.org/1999/xlink" x="0px" y="0px"
	 viewBox="0 0 512.108 512.108" style="enable-background:new 0 0 512.108 512.108;" xml:space="preserve">
<path style="fill:#455A64;" d="M469.387,181.441c-1.704-29.56-16.335-56.871-40-74.667c9.301-11.157-0.192-29.76-3.84-36.907
	c-24.572-41.261-68.192-67.457-116.16-69.76c-18.122-0.699-36.214,2.015-53.333,8c-17.119-5.985-35.211-8.699-53.333-8
	c-47.981,2.317-91.603,28.538-116.16,69.824c-3.648,7.168-13.12,25.749-3.84,36.907c-23.648,17.781-38.277,45.065-40,74.603
	c0,15.765,1.408,32.277,11.029,38.784c-10.165,25.431-5.14,54.419,12.992,74.944c5.803,6.549,19.456,21.781,32.597,15.125
	c4.512-2.482,7.709-6.817,8.747-11.861c13.968,13.522,32.531,21.264,51.968,21.675h192c19.434-0.405,37.996-8.139,51.968-21.653
	c1.037,5.044,4.234,9.38,8.747,11.861c13.099,6.677,26.795-8.533,32.597-15.125c18.132-20.525,23.157-49.513,12.992-74.944
	C467.979,213.718,469.387,197.206,469.387,181.441z"/>
<path style="fill:#009688;" d="M512.054,501.441c0,5.891-4.776,10.667-10.667,10.667H10.72c-5.891,0-10.667-4.776-10.667-10.667
	c0.164-57.699,37.999-108.52,93.227-125.227l54.827-19.2c4.027-1.343,8.468-0.17,11.307,2.987
	c14.825,16.493,33.311,29.28,53.973,37.333c6.891,2.706,14.039,4.708,21.333,5.973c7.016,1.459,14.167,2.174,21.333,2.133
	c37.179-0.844,72.274-17.345,96.64-45.44c2.839-3.157,7.279-4.33,11.307-2.987l54.827,19.2
	C474.055,392.921,511.889,443.742,512.054,501.441z"/>
<path d="M224.054,234.774H202.72c-5.891,0-10.667-4.776-10.667-10.667s4.776-10.667,10.667-10.667h21.333
	c5.891,0,10.667,4.776,10.667,10.667S229.945,234.774,224.054,234.774z"/>
<path d="M309.387,234.774h-21.333c-5.891,0-10.667-4.776-10.667-10.667s4.776-10.667,10.667-10.667h21.333
	c5.891,0,10.667,4.776,10.667,10.667S315.278,234.774,309.387,234.774z"/>
<path style="fill:#FFE082;" d="M384.054,173.548c0-0.917,0-1.835,0-2.773c0-70.692-57.308-128-128-128s-128,57.308-128,128
	c0,0.917,0,1.856,0,2.773c-15.303,12.086-23.353,31.165-21.333,50.56c0,29.675,13.099,52.224,30.699,53.333
	c19.349,64.256,66.133,106.667,118.635,106.667s99.264-42.453,118.635-106.667c17.6-1.067,30.699-23.616,30.699-53.333
	C407.406,204.713,399.356,185.634,384.054,173.548z"/>
<path style="fill:#F44336;" d="M256.054,341.441c-26.152-3.585-44.91-27.032-42.667-53.333c0-5.891,4.776-10.667,10.667-10.667h64
	c5.891,0,10.667,4.776,10.667,10.667C300.964,314.409,282.206,337.856,256.054,341.441z"/>
<g>
	<path style="fill:#455A64;" d="M181.387,202.774c-5.891,0-10.667-4.775-10.667-10.666c0-2.897,1.178-5.67,3.264-7.68
		c7.723-7.721,17.872-12.543,28.736-13.653c5.891,0,10.667,4.776,10.667,10.667c0,5.891-4.776,10.667-10.667,10.667
		c-5.268,1.213-10.093,3.873-13.931,7.68C186.802,201.704,184.148,202.774,181.387,202.774z"/>
	<path style="fill:#455A64;" d="M330.72,202.774c-2.737,0.006-5.373-1.04-7.36-2.923c-3.826-3.858-8.674-6.544-13.973-7.744
		c-5.891,0-10.667-4.776-10.667-10.667c0-5.891,4.776-10.667,10.667-10.667c10.864,1.11,21.013,5.932,28.736,13.653
		c4.242,4.088,4.366,10.841,0.278,15.082C336.39,201.596,333.618,202.774,330.72,202.774z"/>
</g>
<polygon style="fill:#00796B;" points="213.387,397.334 213.387,512.108 234.72,512.108 234.72,403.308 "/>
<g>
	<path style="fill:#455A64;" d="M352.054,448.108h64c5.891,0,10.667,4.776,10.667,10.667v42.667c0,5.891-4.776,10.667-10.667,10.667
		h-64c-5.891,0-10.667-4.776-10.667-10.667v-42.667C341.387,452.883,346.163,448.108,352.054,448.108z"/>
	<path style="fill:#455A64;" d="M309.387,298.774c-3.357,0-6.519-1.581-8.533-4.267c-5.896-8.281-14.573-14.164-24.448-16.576
		c-4.945,0.014-9.562,2.474-12.331,6.571c-3.703,4.582-10.419,5.295-15.001,1.592s-5.295-10.419-1.592-15.001
		c0.175-0.217,0.358-0.426,0.55-0.628c7.028-9.023,17.921-14.177,29.355-13.888c16.327,2.623,30.924,11.673,40.533,25.131
		c3.535,4.713,2.579,11.399-2.133,14.933C313.941,298.026,311.695,298.774,309.387,298.774z"/>
	<path style="fill:#455A64;" d="M202.72,298.774c-5.891,0-10.667-4.776-10.667-10.667c0-2.308,0.749-4.554,2.133-6.4
		c9.61-13.457,24.207-22.507,40.533-25.131c11.386-0.243,22.225,4.876,29.269,13.824c4.05,4.278,3.865,11.029-0.414,15.079
		c-4.278,4.05-11.029,3.865-15.079-0.414c-0.191-0.202-0.375-0.412-0.55-0.628c-2.777-4.109-7.414-6.571-12.373-6.571
		c-9.853,2.421-18.494,8.333-24.32,16.64C209.239,297.193,206.078,298.774,202.72,298.774z"/>
</g>
<g>
</g>
<g>
</g>
<g>
</g>
<g>
</g>
<g>
</g>
<g>
</g>
<g>
</g>
<g>
</g>
<g>
</g>
<g>
</g>
<g>
</g>
<g>
</g>
<g>
</g>
<g>
</g>
<g>
</g>
</svg>
