<?xml version="1.0" encoding="iso-8859-1"?>
<!-- Generator: Adobe Illustrator 19.0.0, SVG Export Plug-In . SVG Version: 6.00 Build 0)  -->
<svg version="1.1" id="Capa_1" xmlns="http://www.w3.org/2000/svg" xmlns:xlink="http://www.w3.org/1999/xlink" x="0px" y="0px"
	 viewBox="0 0 512 512" style="enable-background:new 0 0 512 512;" xml:space="preserve">
<path style="fill:#FFE082;" d="M371.072,238.763c-2.022-2.586-5.122-4.097-8.405-4.096c-35.13-3.807-69.84-10.805-103.701-20.907
	c-1.93-0.557-3.979-0.557-5.909,0c-33.867,10.105-68.585,17.103-103.723,20.907c-5.891,0.005-10.663,4.784-10.658,10.675
	c0.001,0.86,0.105,1.717,0.312,2.552C156.437,318.677,201.28,362.667,256,362.667s99.563-43.989,117.013-114.773
	C373.803,244.713,373.087,241.346,371.072,238.763z"/>
<g>
	<path style="fill:#CFD8DC;" d="M127.68,136.085l-21.333-85.333c-1.436-5.713-7.232-9.181-12.945-7.745
		c-3.526,0.886-6.358,3.508-7.514,6.955l-21.333,64c-1.047,3.125-0.59,6.559,1.237,9.301l42.667,64
		c1.981,2.962,5.311,4.739,8.875,4.736c1.048,0.003,2.09-0.148,3.093-0.448c4.501-1.364,7.578-5.515,7.573-10.219v-42.667
		C128.003,137.796,127.896,136.929,127.68,136.085z"/>
	<path style="fill:#CFD8DC;" d="M447.445,113.963l-21.333-64c-1.38-4.584-5.741-7.609-10.517-7.296
		c-4.738,0.18-8.788,3.465-9.941,8.064l-21.333,85.333c-0.218,0.85-0.325,1.725-0.32,2.603v42.667
		c-0.005,4.703,3.072,8.855,7.573,10.219c1.004,0.3,2.046,0.451,3.093,0.448c3.568-0.002,6.898-1.787,8.875-4.757l42.667-64
		C448.028,120.505,448.485,117.081,447.445,113.963z"/>
</g>
<path style="fill:#0277BD;" d="M405.333,149.333C405.333,66.859,338.475,0,256,0S106.667,66.859,106.667,149.333
	c0.07,9.801,1.163,19.568,3.264,29.141c-2.22,7.87-3.319,16.015-3.264,24.192c0,30.4,13.76,53.333,33.536,53.483
	c1.989,0.25,3.99,0.392,5.995,0.427c1.717,0.033,3.432-0.161,5.099-0.576c35.472-3.718,70.524-10.717,104.704-20.907
	c34.193,10.195,69.259,17.194,104.747,20.907c4.164,0.734,8.423,0.734,12.587,0c18.24,0,32-22.933,32-53.333
	c0.055-8.177-1.044-16.322-3.264-24.192C404.17,168.901,405.264,159.134,405.333,149.333z"/>
<g>
	<path style="fill:#FAFAFA;" d="M288,149.333c-4.443,0-8.42-2.754-9.984-6.912L256,83.712l-22.016,58.709
		c-2.074,5.52-8.229,8.314-13.749,6.24c-5.52-2.074-8.314-8.229-6.24-13.749l32-85.333c2.685-5.52,9.337-7.818,14.857-5.132
		c2.237,1.088,4.044,2.895,5.132,5.132l32,85.333c2.074,5.514-0.715,11.665-6.229,13.739
		C290.554,149.102,289.282,149.333,288,149.333z"/>
	<path style="fill:#FAFAFA;" d="M277.333,128h-42.667c-5.891,0-10.667-4.776-10.667-10.667s4.776-10.667,10.667-10.667h42.667
		c5.891,0,10.667,4.776,10.667,10.667S283.224,128,277.333,128z"/>
</g>
<g>
	<path style="fill:#FFE082;" d="M192,149.333c-39.595,0-42.667,24.491-42.667,32s3.072,32,42.667,32c30.4,0,53.333-13.76,53.333-32
		S222.4,149.333,192,149.333z"/>
	<path style="fill:#FFE082;" d="M320,149.333c-30.4,0-53.333,13.76-53.333,32s22.933,32,53.333,32c39.595,0,42.667-24.491,42.667-32
		S359.595,149.333,320,149.333z"/>
</g>
<path style="fill:#0277BD;" d="M461.845,369.643l-97.835-34.133c-4.021-1.402-8.491-0.279-11.371,2.859
	C328.334,366.567,293.219,383.148,256,384c-37.202-0.825-72.314-17.366-96.64-45.525c-2.88-3.137-7.35-4.261-11.371-2.859
	l-97.835,34.133C20.165,380.172,0.046,408.421,0,440.171v61.163C0,507.224,4.776,512,10.667,512h490.667
	c5.891,0,10.667-4.776,10.667-10.667v-61.163C512,408.382,491.872,380.078,461.845,369.643z"/>
<path style="fill:#FAFAFA;" d="M340.523,475.925c-1.649-3.989-5.539-6.591-9.856-6.592h-46.741l-18.389-36.779
	c-3.144-5.272-9.966-6.998-15.239-3.855c-1.585,0.945-2.91,2.27-3.855,3.855l-18.368,36.779h-46.741
	c-5.891-0.011-10.675,4.757-10.686,10.648c-0.005,2.84,1.123,5.565,3.134,7.571l21.333,21.333c2.004,1.999,4.721,3.12,7.552,3.115
	h106.667c2.831,0.005,5.548-1.115,7.552-3.115l21.333-21.333C341.267,484.499,342.177,479.91,340.523,475.925z"/>
<path style="fill:#455A64;" d="M277.333,298.667h-42.667c-5.891,0-10.667-4.776-10.667-10.667c0-5.891,4.776-10.667,10.667-10.667
	h42.667c5.891,0,10.667,4.776,10.667,10.667C288,293.891,283.224,298.667,277.333,298.667z"/>
<g>
</g>
<g>
</g>
<g>
</g>
<g>
</g>
<g>
</g>
<g>
</g>
<g>
</g>
<g>
</g>
<g>
</g>
<g>
</g>
<g>
</g>
<g>
</g>
<g>
</g>
<g>
</g>
<g>
</g>
</svg>
