<?xml version="1.0" encoding="iso-8859-1"?>
<!-- Generator: Adobe Illustrator 19.0.0, SVG Export Plug-In . SVG Version: 6.00 Build 0)  -->
<svg version="1.1" id="Capa_1" xmlns="http://www.w3.org/2000/svg" xmlns:xlink="http://www.w3.org/1999/xlink" x="0px" y="0px"
	 viewBox="0 0 512.006 512.006" style="enable-background:new 0 0 512.006 512.006;" xml:space="preserve">
<path style="fill:#CFD8DC;" d="M494.938,414.51c-3.404-17.238-15.183-31.642-31.403-38.4l-48.448-20.907
	c-4.049-1.699-8.727-0.704-11.733,2.496c-0.788,0.533-1.504,1.164-2.133,1.877c-68.358,80.23-188.812,89.854-269.042,21.496
	c-7.726-6.582-14.914-13.771-21.496-21.496c-0.561-0.799-1.228-1.516-1.984-2.133c-3.086-3.164-7.803-4.097-11.861-2.347
	L48.58,375.939c-16.278,6.722-28.124,21.129-31.573,38.4L0.218,499.203c-1.178,5.772,2.546,11.406,8.318,12.585
	c0.703,0.143,1.418,0.216,2.136,0.215h490.667c5.891,0.001,10.668-4.773,10.669-10.665c0-0.717-0.072-1.433-0.216-2.135
	L494.938,414.51z"/>
<path style="fill:#607D8B;" d="M419.61,363.459c-5.941-18.558-21.745-32.246-40.96-35.477c-3.542-0.446-7.069,0.936-9.365,3.669
	c-53.112,62.51-146.842,70.129-209.352,17.017c-6.173-5.245-11.907-10.986-17.144-17.166c-2.699-2.437-6.22-3.764-9.856-3.712
	c-18.939,3.742-34.413,17.36-40.533,35.669c-1.031,3.474-0.228,7.234,2.133,9.984c76.006,89.208,209.938,99.91,299.146,23.904
	c8.591-7.32,16.585-15.313,23.904-23.904C419.907,370.674,420.67,366.916,419.61,363.459z"/>
<path style="fill:#CFD8DC;" d="M256.004,0.003C161.792,0.109,85.443,76.457,85.338,170.67v64
	c-0.037,40.604,14.506,79.871,40.981,110.656c0.374,0.423,0.78,0.815,1.216,1.173c62.049,70.952,169.868,78.169,240.82,16.12
	c36.921-32.289,58.166-78.901,58.316-127.949v-64C426.565,76.457,350.217,0.109,256.004,0.003z"/>
<path style="fill:#455A64;" d="M256.004,106.67c-83.733,0-149.333,32.811-149.333,74.667v64c0,41.856,65.6,74.667,149.333,74.667
	s149.333-32.811,149.333-74.667v-64C405.338,139.481,339.738,106.67,256.004,106.67z"/>
<g>
	<path style="fill:#37474F;" d="M160.004,256.003c-5.891,0-10.667-4.776-10.667-10.667v-49.365
		c-0.1-11.847,6.418-22.76,16.896-28.288c28.062-13.098,58.82-19.384,89.771-18.347c56.747,0,93.867,17.344,103.851,28.267
		c3.752,4.542,3.111,11.265-1.431,15.017c-4.213,3.48-10.374,3.214-14.271-0.617c-26.394-16.24-57.251-23.708-88.149-21.333
		c-27.506-0.977-54.861,4.473-79.893,15.915c-3.429,1.862-5.529,5.486-5.44,9.387v49.365
		C170.671,251.228,165.895,256.003,160.004,256.003z"/>
	<path style="fill:#37474F;" d="M266.671,298.67c-18.539,0-32-8.96-32-21.333c0-12.373,13.461-21.333,32-21.333s32,8.96,32,21.333
		C298.671,289.71,285.21,298.67,266.671,298.67z"/>
	<path style="fill:#37474F;" d="M288.004,288.003c-5.891,0-10.667-4.776-10.667-10.667c0-5.891,4.776-10.667,10.667-10.667
		c22.656,0,91.733-31.253,96-43.435c0.008-5.691,4.628-10.297,10.319-10.289c0.116,0,0.232,0.002,0.348,0.006
		c5.972,0.163,10.715,5.076,10.667,11.051C405.338,253.87,311.471,288.003,288.004,288.003z"/>
</g>
<g>
</g>
<g>
</g>
<g>
</g>
<g>
</g>
<g>
</g>
<g>
</g>
<g>
</g>
<g>
</g>
<g>
</g>
<g>
</g>
<g>
</g>
<g>
</g>
<g>
</g>
<g>
</g>
<g>
</g>
</svg>
