<?xml version="1.0" encoding="iso-8859-1"?>
<!-- Generator: Adobe Illustrator 19.0.0, SVG Export Plug-In . SVG Version: 6.00 Build 0)  -->
<svg version="1.1" id="Capa_1" xmlns="http://www.w3.org/2000/svg" xmlns:xlink="http://www.w3.org/1999/xlink" x="0px" y="0px"
	 viewBox="0 0 512.068 512.068" style="enable-background:new 0 0 512.068 512.068;" xml:space="preserve">
<path style="fill:#FFC107;" d="M383.961,105.19C369.309,45.695,317.273,2.921,256.067,0.06
	C194.861,2.921,142.826,45.695,128.174,105.19c-0.125,0.927-0.125,1.867,0,2.795l1.28,10.88c0.263,2.184,1.194,4.233,2.667,5.867
	c12.014,15.051,30.031,24.068,49.28,24.661c9.164-0.319,18.028,3.29,24.363,9.92c12.929,18.898,19.361,41.489,18.325,64.363
	c-0.097,2.556,0.729,5.063,2.325,7.061c7.351,8.88,18.135,14.21,29.653,14.656c11.526-0.44,22.319-5.771,29.675-14.656
	c1.602-2.004,2.427-4.519,2.325-7.083c-1.089-22.838,5.292-45.41,18.176-64.299c6.365-6.668,15.279-10.294,24.491-9.963
	c19.264-0.581,37.299-9.599,49.323-24.661c1.473-1.634,2.404-3.683,2.667-5.867l1.28-10.88
	C384.115,107.056,384.1,106.116,383.961,105.19z"/>
<path style="fill:#FFE082;" d="M320.067,213.393h-42.667c-3.246-0.002-6.316,1.474-8.341,4.011
	c-3.33,3.786-7.974,6.165-12.992,6.656c-5.027-0.461-9.681-2.846-12.992-6.656c-2.025-2.536-5.095-4.013-8.341-4.011h-42.667
	c-26.837,0-42.667,20.971-43.413,59.264l0.853,6.187c0.096,0.727,0.268,1.442,0.512,2.133
	c11.691,32.853,49.579,81.749,106.048,81.749s94.357-48.896,106.048-81.749c0.244-0.691,0.416-1.406,0.512-2.133l0.853-6.187
	c0.047-0.568,0.047-1.139,0-1.707C362.734,234.364,346.905,213.393,320.067,213.393z"/>
<g>
	<path style="fill:#455A64;" d="M416.963,0.06c-5.565-0.552-10.589,3.347-11.435,8.875c-0.128,0.725-11.563,67.925-41.344,101.547
		c-8.013,10.506-20.254,16.938-33.451,17.579c-15.041-0.366-29.538,5.639-39.915,16.533c-25.877,26.965-24.085,77.739-24.085,79.893
		c0.229,5.724,4.938,10.245,10.667,10.24h42.667c14.187,0,21.653,12.352,22.187,36.715c0.12,5.046-0.13,10.094-0.747,15.104
		c-0.649,4.526,1.659,8.963,5.739,11.029c1.492,0.765,3.145,1.16,4.821,1.152c2.795-0.006,5.476-1.109,7.467-3.072
		c18.621-19.71,33.769-42.431,44.8-67.2c21.291-46.741,22.4-210.709,22.4-217.728C426.754,5.168,422.502,0.527,416.963,0.06z"/>
	<path style="fill:#455A64;" d="M221.145,144.529c-10.33-10.853-24.765-16.835-39.744-16.469
		c-13.175-0.642-25.396-7.058-33.408-17.536C118.233,77.009,106.734,9.638,106.585,8.977c-0.982-5.809-6.487-9.721-12.296-8.739
		c-5.121,0.866-8.874,5.295-8.888,10.488c0,6.955,1.109,170.923,22.272,217.6c11.031,24.769,26.179,47.491,44.8,67.2
		c2.001,2.041,4.737,3.194,7.595,3.2c1.678,0.002,3.332-0.401,4.821-1.173c4.079-2.066,6.388-6.503,5.739-11.029
		c-0.616-5.003-0.866-10.044-0.747-15.083c0.533-24.363,8-36.715,22.187-36.715h42.667c5.736,0.004,10.449-4.529,10.667-10.261
		C245.401,222.31,247.065,171.452,221.145,144.529z"/>
</g>
<g>
	<path style="fill:#FFC107;" d="M365.998,336.465c-4.342-2.546-9.873-1.71-13.269,2.005c-24.327,28.177-59.445,44.74-96.661,45.589
		c-37.22-0.854-72.338-17.425-96.661-45.611c-3.972-4.35-10.719-4.657-15.069-0.685c-3.105,2.835-4.255,7.231-2.936,11.224
		l51.2,155.733c1.438,4.378,5.525,7.338,10.133,7.339h106.667c4.608,0,8.696-2.96,10.133-7.339l51.2-155.733
		C372.298,344.219,370.326,339.005,365.998,336.465z"/>
	<path style="fill:#FFC107;" d="M104.942,495.484l-60.587-90.88c-1.908-2.872-5.087-4.644-8.533-4.757
		c-3.457-0.044-6.734,1.536-8.853,4.267C9.474,427.76,0.044,456.404,0.067,485.82v15.573c0,5.891,4.776,10.667,10.667,10.667h85.333
		c5.891-0.003,10.664-4.781,10.661-10.672C106.728,499.287,106.106,497.233,104.942,495.484z"/>
	<path style="fill:#FFC107;" d="M485.251,404.198c-2.015-2.857-5.363-4.471-8.853-4.267c-3.446,0.113-6.625,1.886-8.533,4.757
		l-60.587,90.88c-3.217,4.935-1.824,11.544,3.111,14.761c1.691,1.102,3.66,1.702,5.679,1.73h85.333
		c5.891,0,10.667-4.776,10.667-10.667V485.82C512.098,456.443,502.698,427.833,485.251,404.198z"/>
</g>
<g>
	<path style="fill:#455A64;" d="M212.867,498.065l-51.2-155.733c-1.688-5.144-6.962-8.207-12.267-7.125L8.601,362.94
		c-5.779,1.142-9.538,6.753-8.396,12.532c0.272,1.376,0.813,2.685,1.591,3.852l85.333,128c1.994,2.981,5.352,4.76,8.939,4.736
		h106.667c5.891,0,10.666-4.777,10.666-10.668C213.4,500.262,213.22,499.139,212.867,498.065z"/>
	<path style="fill:#455A64;" d="M511.235,369.297c-1.36-3.302-4.283-5.705-7.787-6.4l-140.715-27.691
		c-5.283-1.046-10.517,2.01-12.203,7.125l-51.2,155.733c-1.838,5.597,1.209,11.624,6.806,13.462
		c1.053,0.346,2.155,0.526,3.263,0.532h106.667c3.568-0.002,6.898-1.787,8.875-4.757l85.333-128
		C512.245,376.336,512.605,372.583,511.235,369.297z"/>
</g>
<g>
	<path style="fill:#FAFAFA;" d="M320.067,202.726h-21.333c-5.891,0-10.666-4.776-10.666-10.667c0-4.036,2.279-7.727,5.887-9.535
		l42.667-21.333c5.272-2.633,11.681-0.494,14.315,4.779c2.633,5.272,0.494,11.681-4.779,14.315l0,0l-16.107,8.064
		c0.45,1.186,0.681,2.444,0.683,3.712C330.734,197.951,325.958,202.726,320.067,202.726z"/>
	<path style="fill:#FAFAFA;" d="M213.401,202.726h-21.333c-5.891,0-10.667-4.776-10.667-10.667v-4.075l-15.445-7.701
		c-5.272-2.633-7.412-9.042-4.779-14.315c2.633-5.272,9.042-7.412,14.315-4.779l0,0l21.12,10.667l0.405,0.213l21.141,10.667
		c5.153,2.855,7.016,9.346,4.162,14.5C220.512,200.5,217.129,202.582,213.401,202.726z"/>
</g>
<path style="fill:#455A64;" d="M277.401,298.726h-42.667c-5.891,0-10.667-4.776-10.667-10.667s4.776-10.667,10.667-10.667h42.667
	c5.891,0,10.667,4.776,10.667,10.667S283.292,298.726,277.401,298.726z"/>
<g>
</g>
<g>
</g>
<g>
</g>
<g>
</g>
<g>
</g>
<g>
</g>
<g>
</g>
<g>
</g>
<g>
</g>
<g>
</g>
<g>
</g>
<g>
</g>
<g>
</g>
<g>
</g>
<g>
</g>
</svg>
