<?xml version="1.0" encoding="iso-8859-1"?>
<!-- Generator: Adobe Illustrator 19.0.0, SVG Export Plug-In . SVG Version: 6.00 Build 0)  -->
<svg version="1.1" id="Capa_1" xmlns="http://www.w3.org/2000/svg" xmlns:xlink="http://www.w3.org/1999/xlink" x="0px" y="0px"
	 viewBox="0 0 512.006 512.006" style="enable-background:new 0 0 512.006 512.006;" xml:space="preserve">
<g>
	<path style="fill:#CFD8DC;" d="M405.338,197.337v-16c0.011-5.891-4.757-10.675-10.648-10.686c-2.84-0.005-5.565,1.123-7.571,3.134
		c-3.392,3.371-6.72,7.147-10.155,11.008c-10.25,16.097-27.307,26.614-46.293,28.544c-12.011,0-21.056-8.789-31.552-18.987
		c-10.596-13.378-26.141-21.915-43.115-23.68c-16.974,1.765-32.519,10.302-43.115,23.68c-10.475,10.197-19.541,18.987-31.552,18.987
		c-18.994-1.923-36.06-12.441-46.315-28.544c-3.413-3.861-6.741-7.616-10.155-11.008c-4.172-4.159-10.926-4.149-15.085,0.024
		c-1.993,1.999-3.112,4.706-3.112,7.528v16c-13.959,11.984-21.792,29.608-21.333,48c0,37.867,48.32,52.309,50.347,52.907
		c2.578,0.748,5.343,0.497,7.744-0.704l40.576-20.203c15.853-2.352,30.83-8.76,43.477-18.603
		c8.251-6.759,18.052-11.362,28.523-13.397c10.462,2.01,20.262,6.584,28.523,13.312c12.639,9.874,27.616,16.311,43.477,18.688
		l40.533,20.288c1.497,0.717,3.14,1.075,4.8,1.045c1.01-0.007,2.015-0.15,2.987-0.427c2.133-0.597,50.347-15.04,50.347-52.907
		C427.13,226.945,419.297,209.32,405.338,197.337z"/>
	<path style="fill:#CFD8DC;" d="M288.004,0.003h-64c-53.019,0-96,42.981-96,96v21.333c0,5.891,4.776,10.667,10.667,10.667h234.667
		c5.891,0,10.667-4.776,10.667-10.667V96.003C384.004,42.984,341.024,0.003,288.004,0.003z"/>
</g>
<path style="fill:#455A64;" d="M389.636,118.553l-8.747-8.747c-2.001-2.007-4.718-3.135-7.552-3.136H138.671
	c-2.831-0.005-5.548,1.115-7.552,3.115l-8.747,8.747c-10.078,10.012-15.732,23.64-15.701,37.845v24.96
	c-0.005,2.831,1.115,5.548,3.115,7.552c3.115,3.115,6.144,6.549,9.28,10.069c14.163,20.844,37.128,34.014,62.272,35.712
	c18.243-1.648,35.017-10.69,46.421-25.024c9.749-9.451,18.155-17.643,28.245-17.643c10.091,0,18.496,8.192,28.245,17.643
	c11.405,14.334,28.178,23.376,46.421,25.024c25.147-1.703,48.113-14.881,62.272-35.733c3.115-3.52,6.165-6.955,9.28-10.069
	c1.994-1.999,3.114-4.707,3.115-7.531v-24.96C405.363,142.178,399.709,128.559,389.636,118.553z"/>
<g>
	<path style="fill:#FAFAFA;" d="M181.338,192.003c-5.891,0-10.667-4.776-10.667-10.667V170.67h-10.667
		c-5.891,0-10.667-4.776-10.667-10.667s4.776-10.667,10.667-10.667h64c5.891,0,10.666,4.776,10.666,10.667
		c0,4.036-2.279,7.727-5.887,9.535l-42.667,21.333C184.633,191.616,182.997,192.003,181.338,192.003z"/>
	<path style="fill:#FAFAFA;" d="M330.671,192.003c-1.659,0-3.295-0.387-4.779-1.131l-42.667-21.333
		c-5.267-2.64-7.396-9.049-4.757-14.315c1.809-3.608,5.499-5.887,9.535-5.887h64c5.891,0,10.667,4.776,10.667,10.667
		s-4.776,10.667-10.667,10.667h-10.667v10.667C341.338,187.228,336.562,192.003,330.671,192.003z"/>
</g>
<path style="fill:#455A64;" d="M494.532,413.081c-3.17-16.169-13.635-29.966-28.352-37.376l-24.107-11.947
	c-4.101-2.024-9.035-1.208-12.267,2.027l-10.667,10.667c-0.546,0.552-1.032,1.16-1.451,1.813l-74.667,117.333
	c-3.169,4.966-1.713,11.561,3.253,14.73c1.711,1.092,3.699,1.673,5.729,1.675h149.333c5.891,0.001,10.668-4.773,10.669-10.664
	c0-0.717-0.072-1.433-0.216-2.135L494.532,413.081z"/>
<path style="fill:#CFD8DC;" d="M437.039,381.55c-0.664-2.792-2.425-5.199-4.885-6.677l-53.333-32
	c-1.652-1.005-3.549-1.537-5.483-1.536H138.671c-1.932-0.007-3.828,0.517-5.483,1.515l-53.333,32
	c-5.063,3.012-6.725,9.558-3.713,14.621c0.063,0.105,0.127,0.21,0.193,0.313l74.667,117.333c1.972,3.057,5.365,4.898,9.003,4.885
	h192c3.646,0.004,7.041-1.855,9.003-4.928l74.667-117.333C437.217,387.308,437.709,384.353,437.039,381.55z"/>
<path style="fill:#455A64;" d="M169.007,495.598L94.34,378.265c-0.419-0.653-0.905-1.261-1.451-1.813l-10.667-10.667
	c-3.232-3.235-8.166-4.05-12.267-2.027l-24.235,12.011c-14.65,7.413-25.069,21.161-28.245,37.269L0.218,499.203
	c-1.178,5.772,2.546,11.406,8.318,12.585c0.703,0.143,1.418,0.216,2.136,0.215h149.333c5.891,0.006,10.672-4.764,10.678-10.655
	C170.684,499.31,170.103,497.315,169.007,495.598z"/>
<path style="fill:#B0BEC5;" d="M383.834,286.147c-0.59-3.324-2.718-6.172-5.739-7.68l-42.667-21.333
	c-1.479-0.734-3.106-1.121-4.757-1.131c-12.66-1.938-24.578-7.202-34.539-15.253c-11.522-9.266-25.437-15.073-40.128-16.747
	c-14.691,1.673-28.606,7.48-40.128,16.747c-9.96,8.051-21.879,13.315-34.539,15.253c-1.658,0.006-3.293,0.393-4.779,1.131
	l-42.667,21.333c-3.02,1.508-5.149,4.356-5.739,7.68c-4.945,26.807,0.551,54.49,15.36,77.376
	c12.147,13.93,30.036,21.485,48.491,20.48c22.955,0,36.821-5.056,42.368-15.488c1.017-1.823,1.737-3.796,2.133-5.845h39.168
	c0.396,2.049,1.116,4.023,2.133,5.845c5.568,10.411,19.413,15.488,42.368,15.488c18.448,0.998,36.327-6.557,48.469-20.48
	C383.395,340.614,388.829,312.932,383.834,286.147z"/>
<path style="fill:#455A64;" d="M320.004,298.67c-5.453,0.022-10.687,2.147-14.613,5.931l-42.56-35.456
	c-0.337-0.213-0.686-0.405-1.045-0.576c-1.718-1.128-3.726-1.735-5.781-1.749c-0.609,0.011-1.216,0.075-1.813,0.192
	c-0.732,0.128-1.447,0.335-2.133,0.619c-0.604,0.257-1.183,0.572-1.728,0.939c-0.375,0.176-0.738,0.376-1.088,0.597l-42.624,35.435
	c-8.507-8.152-22.011-7.864-30.163,0.643c-8.152,8.507-7.864,22.011,0.643,30.163c4.008,3.841,9.355,5.968,14.906,5.93
	c1.325-0.021,2.634-0.289,3.861-0.789c7.037-1.195,12.993-5.866,15.829-12.416l44.309-36.907l44.309,36.928
	c2.837,6.55,8.792,11.221,15.829,12.416c1.228,0.493,2.538,0.754,3.861,0.768c11.782,0,21.333-9.551,21.333-21.333
	C341.338,308.221,331.786,298.67,320.004,298.67z"/>
<g>
</g>
<g>
</g>
<g>
</g>
<g>
</g>
<g>
</g>
<g>
</g>
<g>
</g>
<g>
</g>
<g>
</g>
<g>
</g>
<g>
</g>
<g>
</g>
<g>
</g>
<g>
</g>
<g>
</g>
</svg>
