<?xml version="1.0" encoding="iso-8859-1"?>
<!-- Generator: Adobe Illustrator 19.0.0, SVG Export Plug-In . SVG Version: 6.00 Build 0)  -->
<svg version="1.1" id="Capa_1" xmlns="http://www.w3.org/2000/svg" xmlns:xlink="http://www.w3.org/1999/xlink" x="0px" y="0px"
	 viewBox="0 0 512 512" style="enable-background:new 0 0 512 512;" xml:space="preserve">
<path style="fill:#FFE082;" d="M401.067,175.531c-1.63-4.591-6.128-7.526-10.987-7.168l-17.877,1.472
	c-1.643-17.387-4.992-53.077-7.317-81.067c-1.992-26.106-23.823-46.233-50.005-46.101c-16.142-0.43-31.898,4.979-44.373,15.232
	c-3.906,3.771-9.08,5.947-14.507,6.101c-11.264,0-15.403-0.768-17.557-3.179c-17.988-21.28-49.822-23.949-71.102-5.961
	c-1.132,0.957-2.222,1.964-3.266,3.017c-10.526,9.707-17.059,22.986-18.325,37.248l-6.144,74.261
	c-5.504-0.555-12.288-1.088-18.667-1.088c-4.559,0-8.614,2.898-10.091,7.211c-2.861,8.765-4.273,17.938-4.181,27.157
	c0,29.739,13.141,52.288,30.784,53.333c2.005,6.976,4.096,13.184,6.4,19.2c0.543,1.376,1.364,2.625,2.411,3.669l7.296,7.296
	c19.2,19.2,24.021,23.317,49.067,23.317c13.259-1.216,25.356-8.069,33.216-18.816c7.765-8.192,12.8-13.184,20.117-13.184
	s12.373,4.992,20.117,13.184c7.898,10.701,20.009,17.499,33.259,18.667c25.045,0,29.867-3.989,48.64-22.72l7.957-7.915
	c1.082-1.082,1.919-2.385,2.453-3.819c2.133-5.931,4.267-12.181,6.165-18.923c17.643-1.003,30.784-23.573,30.784-53.291
	C405.395,193.45,403.954,184.284,401.067,175.531z"/>
<g>
	<path style="fill:#455A64;" d="M256,0c-82.436,0.094-149.239,66.898-149.333,149.333c0.091,10.778,1.393,21.513,3.883,32
		c1.08,4.884,5.409,8.361,10.411,8.363c8.953,0.148,17.888,0.86,26.752,2.133c5.819,0.917,11.28-3.057,12.197-8.876
		c0.039-0.247,0.069-0.496,0.091-0.745l7.04-85.333c0.8-8.988,4.923-17.355,11.563-23.467c10.23-11.808,28.095-13.088,39.903-2.858
		c1.477,1.28,2.818,2.71,4.001,4.266c9.014,8.366,21.315,12.229,33.493,10.517c10.589-0.15,20.752-4.199,28.544-11.371
		c8.619-6.799,19.365-10.328,30.336-9.963c15.073-0.113,27.667,11.447,28.843,26.475c3.2,38.677,8.341,91.883,8.341,91.883
		c0.527,5.463,5.114,9.635,10.603,9.643h0.896l28.373-2.347c4.65-0.393,8.505-3.764,9.515-8.32c2.489-10.487,3.792-21.222,3.883-32
		C405.239,66.898,338.436,0.094,256,0z"/>
	<path style="fill:#455A64;" d="M363.989,262.4c-4.197-2.725-9.724-2.166-13.291,1.344l-7.808,7.765
		c-16.469,16.469-16.469,16.469-33.557,16.469c-5.867,0-10.667-4.629-17.749-12.16C283.166,264.356,270.178,257.122,256,256
		c-14.181,1.127-27.17,8.369-35.584,19.84c-7.168,7.552-11.861,12.16-17.749,12.16c-17.067,0-17.067,0-33.941-17.067l-7.403-7.424
		c-4.18-4.151-10.934-4.128-15.085,0.052c-2.931,2.951-3.879,7.336-2.43,11.234C162.475,325.205,203.051,384,256,384
		s92.459-56.256,112.171-108.8C369.986,270.482,368.24,265.137,363.989,262.4z"/>
</g>
<path style="fill:#2196F3;" d="M418.88,354.688l-54.869-19.093c-4.025-1.397-8.496-0.265-11.371,2.88
	c-25.856,28.203-61.291,66.859-96.64,66.859s-70.784-38.656-96.64-66.859c-2.875-3.145-7.345-4.277-11.371-2.88L93.12,354.688
	C37.383,374.105,0.026,426.653,0,485.675v15.659C0,507.224,4.776,512,10.667,512h490.667c5.891,0,10.667-4.776,10.667-10.667
	v-15.659C511.974,426.653,474.617,374.105,418.88,354.688z"/>
<circle style="fill:#607D8B;" cx="202.667" cy="213.333" r="42.667"/>
<circle style="fill:#CFD8DC;" cx="202.667" cy="213.333" r="21.333"/>
<circle style="fill:#607D8B;" cx="309.333" cy="213.333" r="42.667"/>
<circle style="fill:#CFD8DC;" cx="309.333" cy="213.333" r="21.333"/>
<g>
	<path style="fill:#607D8B;" d="M170.667,224c-2.831,0.005-5.548-1.115-7.552-3.115l-32-32c-4.092-4.237-3.975-10.99,0.262-15.083
		c4.134-3.992,10.687-3.992,14.82,0l32,32c4.159,4.172,4.149,10.926-0.024,15.085C176.18,222.875,173.482,223.994,170.667,224z"/>
	<path style="fill:#607D8B;" d="M341.333,224c-5.891,0.011-10.675-4.757-10.686-10.648c-0.005-2.84,1.123-5.565,3.134-7.571l32-32
		c4.093-4.237,10.845-4.355,15.083-0.262c4.237,4.093,4.354,10.845,0.262,15.083c-0.086,0.089-0.173,0.176-0.262,0.262l-32,32
		C346.868,222.866,344.16,223.994,341.333,224z"/>
	<path style="fill:#607D8B;" d="M277.333,224c-3.575,0.005-6.915-1.781-8.896-4.757c-5.619-6.881-15.752-7.903-22.633-2.284
		c-0.836,0.683-1.601,1.448-2.284,2.284c-3.27,4.901-9.893,6.224-14.795,2.955c-4.901-3.27-6.224-9.893-2.955-14.795
		c12.096-16.683,35.426-20.403,52.109-8.307c3.19,2.313,5.994,5.117,8.307,8.307c3.275,4.897,1.961,11.521-2.935,14.797
		C281.5,223.371,279.441,223.998,277.333,224z"/>
</g>
<path style="fill:#FAFAFA;" d="M266.667,320h-21.333c-5.891,0-10.667-4.776-10.667-10.667s4.776-10.667,10.667-10.667h21.333
	c5.891,0,10.667,4.776,10.667,10.667S272.558,320,266.667,320z"/>
<g>
</g>
<g>
</g>
<g>
</g>
<g>
</g>
<g>
</g>
<g>
</g>
<g>
</g>
<g>
</g>
<g>
</g>
<g>
</g>
<g>
</g>
<g>
</g>
<g>
</g>
<g>
</g>
<g>
</g>
</svg>
