<?xml version="1.0" encoding="iso-8859-1"?>
<!-- Generator: Adobe Illustrator 19.0.0, SVG Export Plug-In . SVG Version: 6.00 Build 0)  -->
<svg version="1.1" id="Capa_1" xmlns="http://www.w3.org/2000/svg" xmlns:xlink="http://www.w3.org/1999/xlink" x="0px" y="0px"
	 viewBox="0 0 512 512" style="enable-background:new 0 0 512 512;" xml:space="preserve">
<g>
	<path style="fill:#455A64;" d="M418.88,354.688l-54.869-19.093c-4.025-1.397-8.496-0.265-11.371,2.88
		c-25.856,28.203-61.291,66.859-96.64,66.859s-70.784-38.656-96.64-66.859c-2.875-3.145-7.345-4.277-11.371-2.88L93.12,354.688
		C37.383,374.105,0.026,426.653,0,485.675v15.659C0,507.224,4.776,512,10.667,512h490.667c5.891,0,10.667-4.776,10.667-10.667
		v-15.659C511.974,426.653,474.617,374.105,418.88,354.688z"/>
	<path style="fill:#455A64;" d="M256,0c-98.133,0-149.333,124.992-149.333,192c0,65.963,62.635,181.568,65.301,186.432
		c0.621,1.143,1.445,2.162,2.432,3.008l74.667,64c3.992,3.414,9.875,3.414,13.867,0l74.667-64c0.987-0.846,1.811-1.866,2.432-3.008
		c2.667-4.864,65.301-120.469,65.301-186.432C405.333,124.992,354.133,0,256,0z"/>
</g>
<path style="fill:#FAFAFA;" d="M362.389,118.315C357.803,41.045,298.965,0,256,0S154.197,41.045,149.611,118.315
	c-31.296,6.101-42.944,39.701-42.944,63.019c-0.276,22.808,13.984,43.266,35.477,50.901c10.453,5.547,16.448,9.003,18.197,15.765
	c17.216,66.731,52.544,178.667,95.659,178.667S334.443,314.731,351.659,248c1.749-6.763,7.744-10.219,18.197-15.765
	c21.494-7.635,35.753-28.093,35.477-50.901C405.333,158.016,393.685,124.416,362.389,118.315z"/>
<g>
	<path style="fill:#455A64;" d="M174.741,192c-7.116,0.863-14.273-1.235-19.797-5.803c-3.942-4.175-5.974-9.8-5.611-15.531
		c0-9.451,9.237-10.859,12.8-11.371c25.399-0.488,46.929-18.822,51.456-43.819c1.055-5.348,5.885-9.105,11.328-8.811
		c5.53,0.477,9.77,5.116,9.749,10.667c0,24.064-29.867,74.667-53.333,74.667H174.741z"/>
	<path style="fill:#455A64;" d="M337.259,192h-6.592c-23.467,0-53.333-50.603-53.333-74.667c-0.021-5.551,4.219-10.189,9.749-10.667
		c5.478-0.382,10.382,3.378,11.435,8.768c4.501,24.975,25.978,43.32,51.349,43.861c3.477,0.512,12.8,1.92,12.8,11.371
		c0.369,5.738-1.663,11.371-5.611,15.552C351.529,190.778,344.371,192.868,337.259,192z"/>
	<path style="fill:#455A64;" d="M266.667,213.333c-4.044,0.008-7.745-2.272-9.557-5.888L256,205.184l-1.131,2.24
		c-2.633,5.272-9.042,7.412-14.315,4.779s-7.412-9.042-4.779-14.315l10.667-21.333c3.144-5.272,9.966-6.998,15.239-3.855
		c1.585,0.945,2.91,2.27,3.855,3.855l10.667,21.333c2.634,5.269,0.498,11.676-4.771,14.311c-0.003,0.001-0.005,0.003-0.008,0.004
		C269.949,212.947,268.319,213.335,266.667,213.333z"/>
	<path style="fill:#455A64;" d="M276.437,243.2c-11.295-11.288-29.601-11.288-40.896,0c-6.828,12.552-7.924,27.436-3.008,40.853
		c1.097,4.807,1.81,9.693,2.133,14.613c0,71.723,7.509,85.333,21.333,85.333c13.824,0,21.333-13.611,21.333-85.333
		c0.321-4.934,1.034-9.835,2.133-14.656C284.363,270.603,283.26,255.738,276.437,243.2z"/>
</g>
<g>
</g>
<g>
</g>
<g>
</g>
<g>
</g>
<g>
</g>
<g>
</g>
<g>
</g>
<g>
</g>
<g>
</g>
<g>
</g>
<g>
</g>
<g>
</g>
<g>
</g>
<g>
</g>
<g>
</g>
</svg>
