<?xml version="1.0" encoding="iso-8859-1"?>
<!-- Generator: Adobe Illustrator 19.0.0, SVG Export Plug-In . SVG Version: 6.00 Build 0)  -->
<svg version="1.1" id="Capa_1" xmlns="http://www.w3.org/2000/svg" xmlns:xlink="http://www.w3.org/1999/xlink" x="0px" y="0px"
	 viewBox="0 0 512.016 512.016" style="enable-background:new 0 0 512.016 512.016;" xml:space="preserve">
<path style="fill:#388E3C;" d="M387.708,298.682l-50.347-40.32c-1.894-1.519-4.249-2.347-6.677-2.347H181.35
	c-2.425-0.007-4.781,0.814-6.677,2.325l-50.347,40.341c-4.596,3.685-5.334,10.399-1.649,14.995c1.223,1.525,2.841,2.684,4.678,3.352
	c1.728,0.619,3.563,1.173,5.504,1.728l1.067,0.149c0.888,0.421,1.8,0.792,2.731,1.109c1.583,0.54,3.1,1.255,4.523,2.133l0,0
	c0.427,0.256,0.832,0.469,1.28,0.683c25.451,11.989,87.339,39.851,113.557,39.851c22.805,0,72.789-20.843,110.699-38.4
	c0.405-0.192,3.541-1.877,3.925-2.133c1.832-1.142,3.794-2.059,5.845-2.731l2.688-0.789c1.941-0.555,3.776-1.109,5.504-1.728
	c5.537-2.012,8.394-8.132,6.381-13.669c-0.668-1.837-1.827-3.455-3.352-4.678L387.708,298.682z"/>
<path style="fill:#FFC107;" d="M418.812,270.778c-9.015-30.625-35.164-53.108-66.795-57.429h-192
	c-31.631,4.321-57.78,26.804-66.795,57.429c-1.664,9.643-1.664,33.472,34.133,46.251c3.479,1.243,7.352,0.597,10.24-1.707
	l47.509-37.973h141.824l47.445,37.973c2.888,2.304,6.761,2.949,10.24,1.707C420.476,304.272,420.476,280.442,418.812,270.778z"/>
<path style="fill:#455A64;" d="M371.601,309.541c-2.697-4.887-8.706-6.869-13.781-4.544
	c-31.991,16.992-66.285,29.238-101.803,36.352c-36.41-7.758-71.583-20.477-104.533-37.803c-5.346-2.474-11.686-0.146-14.16,5.2
	c-2.221,4.8-0.59,10.504,3.835,13.402c27.072,17.493,77.803,93.163,95.104,120.853c1.834,2.931,4.975,4.792,8.427,4.992h0.661
	c3.242,0.007,6.312-1.461,8.341-3.989c0.768-0.96,77.44-96.448,114.368-120.384C372.745,320.579,374.289,314.438,371.601,309.541z"
	/>
<path style="fill:#4CAF50;" d="M478.78,73.808c-3.437-6.949-10.951-10.9-18.624-9.792c-24.057,3.205-47.178,11.402-67.883,24.064
	c-6.016,3.093-13.525,6.912-18.901,9.216c-5.327-20.591-17.266-38.863-33.984-52.011c-12.624-23.197-34.743-39.73-60.565-45.269
	c-7.848-0.223-15.568,2.014-22.08,6.4c-6.502-4.389-14.217-6.628-22.059-6.4c-26.26,5.405-48.889,21.925-62.037,45.291
	c-16.334,13.222-27.815,31.493-32.64,51.947c-5.355-2.283-12.8-6.101-18.795-9.173C100.514,75.42,77.4,67.224,53.35,64.016
	c-7.672-1.108-15.187,2.843-18.624,9.792c-5.568,12.8,8.277,27.563,27.435,47.851c8.747,8.329,16.526,17.618,23.189,27.691
	c0,20.032,39.147,45.525,65.323,60.331c4.846,24.871,17.067,47.707,35.072,65.536c20.593,14.59,45.045,22.755,70.272,23.467
	c25.686-0.687,50.616-8.842,71.744-23.467c18.022-17.851,30.244-40.719,35.072-65.621c26.197-14.805,65.344-40.277,65.301-59.733
	c6.493-10.372,14.294-19.865,23.211-28.245C470.524,101.37,484.284,86.693,478.78,73.808z"/>
<g>
	<path style="fill:#455A64;" d="M224.017,170.682h-21.333c-5.891,0-10.667-4.776-10.667-10.667c0-5.891,4.776-10.667,10.667-10.667
		h21.333c5.891,0,10.667,4.776,10.667,10.667C234.684,165.907,229.908,170.682,224.017,170.682z"/>
	<path style="fill:#455A64;" d="M309.35,170.682h-21.333c-5.891,0-10.667-4.776-10.667-10.667c0-5.891,4.776-10.667,10.667-10.667
		h21.333c5.891,0,10.667,4.776,10.667,10.667C320.017,165.907,315.241,170.682,309.35,170.682z"/>
</g>
<path style="fill:#388E3C;" d="M202.684,106.682c-4.896-0.001-9.162-3.335-10.347-8.085L181.67,55.93
	c-1.426-5.72,2.056-11.513,7.776-12.939c5.72-1.426,11.513,2.056,12.939,7.776l10.667,42.667c1.424,5.714-2.052,11.501-7.765,12.928
	C204.435,106.573,203.561,106.68,202.684,106.682z"/>
<path style="fill:#455A64;" d="M160.017,160.016c-5.891,0.011-10.675-4.757-10.686-10.648c-0.005-2.84,1.123-5.565,3.134-7.571
	c36.864-36.843,67.115-43.989,89.749-21.333c4.237,4.092,4.355,10.845,0.262,15.083c-4.092,4.237-10.845,4.355-15.083,0.262
	c-0.089-0.086-0.176-0.173-0.262-0.262c-6.55-7.116-17.096-8.874-25.6-4.267c-12.854,6.292-24.389,14.981-33.984,25.6
	C165.552,158.882,162.843,160.01,160.017,160.016z"/>
<path style="fill:#388E3C;" d="M309.35,106.682c-0.99,0.001-1.974-0.143-2.923-0.427c-5.657-1.613-8.941-7.502-7.339-13.163
	l12.139-42.667c1.513-5.608,7.285-8.928,12.894-7.415c0.09,0.024,0.18,0.05,0.269,0.076c5.657,1.613,8.941,7.502,7.339,13.163
	L319.59,98.917C318.294,103.502,314.115,106.671,309.35,106.682z"/>
<path style="fill:#455A64;" d="M352.017,160.016c-2.831,0.005-5.548-1.115-7.552-3.115c-9.595-10.619-21.13-19.307-33.984-25.6
	c-8.506-4.591-19.043-2.835-25.6,4.267c-4.237,4.092-10.99,3.975-15.083-0.262c-3.992-4.134-3.992-10.687,0-14.82
	c22.677-22.656,52.907-15.509,89.749,21.333c4.159,4.172,4.149,10.926-0.024,15.085C357.53,158.891,354.832,160.01,352.017,160.016z
	"/>
<path style="fill:#388E3C;" d="M256.017,117.349c-5.891,0-10.667-4.776-10.667-10.667V21.349c0-5.891,4.776-10.667,10.667-10.667
	c5.891,0,10.667,4.776,10.667,10.667v85.333C266.684,112.573,261.908,117.349,256.017,117.349z"/>
<path style="fill:#FFA000;" d="M490.257,498.405L447.59,349.072c-0.606-2.127-1.859-4.013-3.584-5.397l-56.299-44.992
	c-2.906-2.319-6.81-2.958-10.304-1.685c-1.301,0.448-2.688,0.853-4.117,1.28l-4.053,1.323c-3.293,1.011-6.441,2.445-9.365,4.267
	c-0.96,0.469-1.92,0.981-3.349,1.856c-32,20.8-87.915,86.571-110.08,113.451c-18.453-28.352-64.32-96-93.611-114.965
	c-0.358-0.226-0.728-0.433-1.109-0.619c-3.109-1.844-6.415-3.332-9.856-4.437l-3.179-0.917c-1.429-0.427-2.837-0.811-4.117-1.28
	c-3.48-1.262-7.367-0.606-10.24,1.728l-56.32,45.013c-1.725,1.384-2.978,3.27-3.584,5.397L21.756,498.426
	c-1.614,5.666,1.67,11.567,7.336,13.181c0.952,0.271,1.936,0.408,2.926,0.408h448c5.891-0.007,10.661-4.788,10.654-10.679
	C490.67,500.345,490.531,499.358,490.257,498.405z"/>
<g>
	<path style="fill:#FFC107;" d="M160.017,512.016c-4.572,0.006-8.64-2.903-10.112-7.232
		c-11.911-35.739-25.887-70.756-41.856-104.875c-3.069-5.029-1.48-11.593,3.548-14.662c5.029-3.069,11.593-1.48,14.662,3.548
		c0.132,0.215,0.255,0.436,0.371,0.66c16.657,35.247,31.175,71.466,43.477,108.459c1.905,5.575-1.07,11.638-6.645,13.543
		c-0.004,0.001-0.008,0.003-0.011,0.004C162.343,511.827,161.184,512.014,160.017,512.016z"/>
	<path style="fill:#FFC107;" d="M352.017,512.016c-1.167-0.001-2.327-0.189-3.435-0.555c-5.577-1.899-8.558-7.958-6.66-13.535
		c0.001-0.004,0.003-0.008,0.004-0.012c12.302-36.993,26.821-73.211,43.477-108.459c2.704-5.234,9.139-7.284,14.373-4.579
		c5.234,2.704,7.284,9.139,4.579,14.373c-0.116,0.224-0.24,0.444-0.371,0.66c-15.966,34.12-29.941,69.137-41.856,104.875
		C360.657,509.113,356.589,512.022,352.017,512.016z"/>
	<path style="fill:#FFC107;" d="M245.35,512.016c-5.891,0-10.667-4.776-10.667-10.667v-64c0-5.891,4.776-10.667,10.667-10.667
		c5.891,0,10.667,4.776,10.667,10.667v64C256.017,507.24,251.241,512.016,245.35,512.016z"/>
</g>
<g>
</g>
<g>
</g>
<g>
</g>
<g>
</g>
<g>
</g>
<g>
</g>
<g>
</g>
<g>
</g>
<g>
</g>
<g>
</g>
<g>
</g>
<g>
</g>
<g>
</g>
<g>
</g>
<g>
</g>
</svg>
