<?xml version="1.0" encoding="iso-8859-1"?>
<!-- Generator: Adobe Illustrator 19.0.0, SVG Export Plug-In . SVG Version: 6.00 Build 0)  -->
<svg version="1.1" id="Capa_1" xmlns="http://www.w3.org/2000/svg" xmlns:xlink="http://www.w3.org/1999/xlink" x="0px" y="0px"
	 viewBox="0 0 512 512" style="enable-background:new 0 0 512 512;" xml:space="preserve">
<path style="fill:#757575;" d="M260.267,480.875l-97.685-43.264l-31.488-7.872l30.485-91.456c1.29-3.867,0.263-8.131-2.645-10.987
	c-2.902-2.849-7.171-3.801-11.008-2.453l-54.805,19.2C37.4,363.495,0.056,416.033,0,475.051v15.573
	c0,5.891,4.776,10.667,10.667,10.667H256c5.891-0.033,10.639-4.836,10.606-10.727C266.582,486.368,264.101,482.577,260.267,480.875z
	"/>
<path style="fill:#9E9E9E;" d="M367.147,326.528c-4.386-3.454-10.693-2.942-14.464,1.173c-24.335,28.178-59.46,44.741-96.683,45.589
	c-37.226-0.854-72.351-17.424-96.683-45.611c-4.029-4.298-10.779-4.517-15.077-0.488c-3.782,3.544-4.468,9.294-1.627,13.629
	l104.533,155.733c3.286,4.89,9.913,6.19,14.803,2.904c1.147-0.771,2.133-1.757,2.904-2.904l104.533-155.733
	C372.479,336.201,371.504,329.981,367.147,326.528z"/>
<path style="fill:#757575;" d="M418.88,344.021l-54.805-19.2c-3.837-1.348-8.106-0.396-11.008,2.453
	c-2.909,2.856-3.935,7.12-2.645,10.987l30.507,91.499l-33.259,8.533l-96,42.667c-5.385,2.39-7.812,8.692-5.422,14.077
	c1.702,3.835,5.494,6.316,9.689,6.339h245.397c5.891,0,10.667-4.775,10.667-10.666c0-0.029,0-0.057,0-0.086v-15.573
	C511.953,416.025,474.607,363.476,418.88,344.021z"/>
<g>
	<path style="fill:#424242;" d="M264.853,484.693L160.32,328.96c-2.288-3.349-6.258-5.136-10.283-4.629
		c-4.028,0.546-7.395,3.334-8.683,7.189l-34.133,102.4c-1.869,5.587,1.144,11.631,6.731,13.5c0.27,0.091,0.544,0.17,0.821,0.239
		l40.917,10.069l96,42.667c5.388,2.383,11.687-0.054,14.069-5.441c1.477-3.34,1.143-7.202-0.885-10.239L264.853,484.693z"/>
	<path style="fill:#424242;" d="M404.8,433.92l-34.133-102.4c-1.288-3.855-4.655-6.643-8.683-7.189
		c-4.024-0.502-7.991,1.284-10.283,4.629L247.168,484.693c-3.272,4.899-1.953,11.523,2.945,14.795
		c3.036,2.028,6.899,2.362,10.239,0.885l94.251-42.069l42.667-10.667c5.718-1.416,9.206-7.199,7.791-12.918
		c-0.069-0.277-0.148-0.551-0.239-0.821L404.8,433.92z"/>
</g>
<path style="fill:#CFD8DC;" d="M256,10.624c-70.658,0.082-127.918,57.342-128,128v48c0,91.157,57.408,165.333,128,165.333
	s128-74.176,128-165.333v-48C383.918,67.966,326.658,10.706,256,10.624z"/>
<g>
	<circle style="fill:#455A64;" cx="256" cy="223.957" r="10.667"/>
	<circle style="fill:#455A64;" cx="224" cy="255.957" r="10.667"/>
	<circle style="fill:#455A64;" cx="181.333" cy="234.624" r="10.667"/>
	<circle style="fill:#455A64;" cx="224" cy="298.624" r="10.667"/>
	<circle style="fill:#455A64;" cx="288" cy="255.957" r="10.667"/>
	<circle style="fill:#455A64;" cx="330.667" cy="234.624" r="10.667"/>
	<circle style="fill:#455A64;" cx="288" cy="298.624" r="10.667"/>
	<circle style="fill:#455A64;" cx="224" cy="63.957" r="10.667"/>
	<circle style="fill:#455A64;" cx="202.667" cy="106.624" r="10.667"/>
	<circle style="fill:#455A64;" cx="288" cy="63.957" r="10.667"/>
	<circle style="fill:#455A64;" cx="309.333" cy="106.624" r="10.667"/>
	<path style="fill:#455A64;" d="M228.992,155.413c-6.685-5.188-15.208-7.401-23.573-6.123h-5.504
		c-8.368-1.265-16.888,0.956-23.573,6.144c-3.89,4.074-5.941,9.563-5.675,15.189c0,17.673,14.327,32,32,32s32-14.327,32-32
		C234.939,164.991,232.887,159.492,228.992,155.413z"/>
	<path style="fill:#455A64;" d="M335.659,155.413c-6.685-5.188-15.208-7.401-23.573-6.123h-5.504
		c-8.368-1.265-16.888,0.956-23.573,6.144c-3.89,4.074-5.941,9.563-5.675,15.189c0,17.673,14.327,32,32,32s32-14.327,32-32
		C341.605,164.991,339.554,159.492,335.659,155.413z"/>
</g>
<path style="fill:#F44336;" d="M256,149.291c-1.659,0-3.295-0.387-4.779-1.131l-21.333-10.667
	c-5.272-2.633-7.412-9.042-4.779-14.315c2.633-5.272,9.042-7.412,14.315-4.779L256,126.699l16.555-8.299
	c5.272-2.633,11.681-0.494,14.315,4.779c2.633,5.272,0.494,11.681-4.779,14.315l-21.333,10.667
	C259.281,148.9,257.652,149.287,256,149.291z"/>
<g>
</g>
<g>
</g>
<g>
</g>
<g>
</g>
<g>
</g>
<g>
</g>
<g>
</g>
<g>
</g>
<g>
</g>
<g>
</g>
<g>
</g>
<g>
</g>
<g>
</g>
<g>
</g>
<g>
</g>
</svg>
